{
  "accessors": [
    {
      "bufferView": 2,
      "componentType": 5126,
      "count": 4266,
      "max": [
        0.49997571110725403,
        0.49997666478157043,
        4.433143615722656
      ],
      "min": [
        -0.49997761845588684,
        -0.49997666478157043,
        -8.261453628540039
      ],
      "type": "VEC3"
    },
    {
      "bufferView": 2,
      "byteOffset": 51192,
      "componentType": 5126,
      "count": 4266,
      "max": [
        1.0,
        1.0,
        1.0
      ],
      "min": [
        -1.0,
        -1.0,
        -1.0
      ],
      "type": "VEC3"
    },
    {
      "bufferView": 3,
      "componentType": 5126,
      "count": 4266,
      "max": [
        1.0,
        1.0,
        1.0,
        1.0
      ],
      "min": [
        -1.0,
        -1.0,
        -1.0,
        1.0
      ],
      "type": "VEC4"
    },
    {
      "bufferView": 1,
      "componentType": 5126,
      "count": 4266,
      "max": [
        0.9992128014564514,
        0.9364883303642273
      ],
      "min": [
        0.0007871407433412969,
        0.0007871407433412969
      ],
      "type": "VEC2"
    },
    {
      "bufferView": 0,
      "componentType": 5125,
      "count": 16026,
      "type": "SCALAR"
    },
    {
      "bufferView": 2,
      "byteOffset": 102384,
      "componentType": 5126,
      "count": 4808,
      "max": [
        0.7371150851249695,
        2.9281182289123535,
        2.3478403091430664
      ],
      "min": [
        -0.7373409867286682,
        -2.9281182289123535,
        -1.8270692825317383
      ],
      "type": "VEC3"
    },
    {
      "bufferView": 2,
      "byteOffset": 160080,
      "componentType": 5126,
      "count": 4808,
      "max": [
        1.0,
        1.0,
        1.0
      ],
      "min": [
        -1.0,
        -1.0,
        -1.0
      ],
      "type": "VEC3"
    },
    {
      "bufferView": 3,
      "byteOffset": 68256,
      "componentType": 5126,
      "count": 4808,
      "max": [
        1.0,
        1.0,
        1.0,
        1.0
      ],
      "min": [
        -1.0,
        -1.0,
        -1.0,
        -1.0
      ],
      "type": "VEC4"
    },
    {
      "bufferView": 1,
      "byteOffset": 34128,
      "componentType": 5126,
      "count": 4808,
      "max": [
        0.9942230582237244,
        0.9980434775352478
      ],
      "min": [
        0.001956462860107422,
        0.001956455409526825
      ],
      "type": "VEC2"
    },
    {
      "bufferView": 0,
      "byteOffset": 64104,
      "componentType": 5125,
      "count": 9720,
      "type": "SCALAR"
    }
  ],
  "asset": {
    "extras": {
      "author": "Thomas_Crozelon (https://sketchfab.com/Thomas_Crozelon)",
      "license": "CC-BY-4.0 (http://creativecommons.org/licenses/by/4.0/)",
      "source": "https://sketchfab.com/3d-models/antique-lamp-post-5533044614d14ca18c9f57fe04e29931",
      "title": "Antique lamp post"
    },
    "generator": "Sketchfab-16.15.0",
    "version": "2.0"
  },
  "bufferViews": [
    {
      "buffer": 0,
      "byteLength": 102984,
      "name": "floatBufferViews",
      "target": 34963
    },
    {
      "buffer": 0,
      "byteLength": 72592,
      "byteOffset": 102984,
      "byteStride": 8,
      "name": "floatBufferViews",
      "target": 34962
    },
    {
      "buffer": 0,
      "byteLength": 217776,
      "byteOffset": 175576,
      "byteStride": 12,
      "name": "floatBufferViews",
      "target": 34962
    },
    {
      "buffer": 0,
      "byteLength": 145184,
      "byteOffset": 393352,
      "byteStride": 16,
      "name": "floatBufferViews",
      "target": 34962
    }
  ],
  "buffers": [
    {
      "byteLength": 538536,
      "uri": "scene.bin"
    }
  ],
  "extensionsUsed": [
    "KHR_materials_emissive_strength"
  ],
  "images": [
    {
      "uri": "textures/lampadaire_base_baseColor.png"
    },
    {
      "uri": "textures/lampadaire_base_metallicRoughness.png"
    },
    {
      "uri": "textures/lampadaire_base_normal.png"
    },
    {
      "uri": "textures/lampadaire_add_baseColor.png"
    },
    {
      "uri": "textures/lampadaire_add_metallicRoughness.png"
    },
    {
      "uri": "textures/lampadaire_add_emissive.png"
    },
    {
      "uri": "textures/lampadaire_add_normal.png"
    }
  ],
  "materials": [
    {
      "doubleSided": true,
      "name": "lampadaire_base",
      "normalTexture": {
        "index": 2
      },
      "occlusionTexture": {
        "index": 1
      },
      "pbrMetallicRoughness": {
        "baseColorTexture": {
          "index": 0
        },
        "metallicRoughnessTexture": {
          "index": 1
        }
      }
    },
    {
      "doubleSided": true,
      "emissiveFactor": [
        1.0,
        1.0,
        1.0
      ],
      "emissiveTexture": {
        "index": 5
      },
      "extensions": {
        "KHR_materials_emissive_strength": {
          "emissiveStrength": 5.0
        }
      },
      "name": "lampadaire_add",
      "normalTexture": {
        "index": 6
      },
      "pbrMetallicRoughness": {
        "baseColorTexture": {
          "index": 3
        },
        "metallicRoughnessTexture": {
          "index": 4
        }
      }
    }
  ],
  "meshes": [
    {
      "name": "Lampadaire_low_lampadaire base_0",
      "primitives": [
        {
          "attributes": {
            "NORMAL": 1,
            "POSITION": 0,
            "TANGENT": 2,
            "TEXCOORD_0": 3
          },
          "indices": 4,
          "material": 0,
          "mode": 4
        }
      ]
    },
    {
      "name": "Lamps_arms_low_lampadaire add_0",
      "primitives": [
        {
          "attributes": {
            "NORMAL": 6,
            "POSITION": 5,
            "TANGENT": 7,
            "TEXCOORD_0": 8
          },
          "indices": 9,
          "material": 1,
          "mode": 4
        }
      ]
    }
  ],
  "nodes": [
    {
      "children": [
        1
      ],
      "matrix": [
        1.0,
        0.0,
        0.0,
        0.0,
        0.0,
        2.220446049250313e-16,
        -1.0,
        0.0,
        0.0,
        1.0,
        2.220446049250313e-16,
        0.0,
        0.0,
        0.0,
        0.0,
        1.0
      ],
      "name": "Sketchfab_model"
    },
    {
      "children": [
        2
      ],
      "matrix": [
        0.009999999776482582,
        0.0,
        0.0,
        0.0,
        0.0,
        0.0,
        0.009999999776482582,
        0.0,
        0.0,
        -0.009999999776482582,
        0.0,
        0.0,
        0.0,
        0.0,
        0.0,
        1.0
      ],
      "name": "56d2b0c8ef604541b4e03252f88ddcd4.fbx"
    },
    {
      "children": [
        3,
        5
      ],
      "name": "RootNode"
    },
    {
      "children": [
        4
      ],
      "matrix": [
        100.0,
        0.0,
        0.0,
        0.0,
        0.0,
        -1.629206793918314e-05,
        -99.99999999999868,
        0.0,
        0.0,
        99.99999999999868,
        -1.629206793918314e-05,
        0.0,
        9.5797520771157e-05,
        826.1453857421875,
        5.797683400032838e-08,
        1.0
      ],
      "name": "Lampadaire_low"
    },
    {
      "mesh": 0,
      "name": "Lampadaire_low_lampadaire base_0"
    },
    {
      "children": [
        6
      ],
      "matrix": [
        100.0,
        0.0,
        0.0,
        0.0,
        0.0,
        -1.629206793918314e-05,
        -99.99999999999868,
        0.0,
        0.0,
        99.99999999999868,
        -1.629206793918314e-05,
        0.0,
        0.032126426696777344,
        1153.086669921875,
        -7.5275975177646615e-06,
        1.0
      ],
      "name": "Lamps_arms_low"
    },
    {
      "mesh": 1,
      "name": "Lamps_arms_low_lampadaire add_0"
    }
  ],
  "samplers": [
    {
      "magFilter": 9729,
      "minFilter": 9987,
      "wrapS": 10497,
      "wrapT": 10497
    }
  ],
  "scene": 0,
  "scenes": [
    {
      "name": "Sketchfab_Scene",
      "nodes": [
        0
      ]
    }
  ],
  "textures": [
    {
      "sampler": 0,
      "source": 0
    },
    {
      "sampler": 0,
      "source": 1
    },
    {
      "sampler": 0,
      "source": 2
    },
    {
      "sampler": 0,
      "source": 3
    },
    {
      "sampler": 0,
      "source": 4
    },
    {
      "sampler": 0,
      "source": 5
    },
    {
      "sampler": 0,
      "source": 6
    }
  ]
}
